<svg xmlns="http://www.w3.org/2000/svg" width="1080" height="1080" fill="none"><path fill="#121212" d="M706.759 194h-25.6552v25.6552h25.6552z" data-index="1"></path><path fill="#121212" d="M732.414 219.655h-25.6552v25.6552h25.6552zM629.793 219.655h-25.6552v25.6552h25.6552zM552.828 219.655h-25.6552v25.6552h25.6552zM475.862 219.655h-25.6552v25.6552h25.6552zM373.241 219.655h-25.6552v25.6552h25.6552z" data-index="2" style="opacity: 1;"></path><path fill="#121212" d="M732.414 245.31h-25.6552v25.6552h25.6552z" data-index="3"></path><path fill="#121212" d="M706.759 245.31h-25.6552v25.6552h25.6552zM758.069 245.31h-25.6552v25.6552h25.6552z" data-index="4"></path><path fill="#121212" d="M783.724 245.31h-25.6552v25.6552h25.6552z" data-index="5"></path><path fill="#121212" d="M809.379 245.31h-25.6552v25.6552h25.6552zM835.035 270.965h-25.6552v25.6552h25.6552z" data-index="6" style="opacity: 1;"></path><path fill="#121212" d="M860.69 296.62h-25.6552v25.6552H860.69zM860.69 322.276h-25.6552v25.6552H860.69z" data-index="7"></path><path fill="#121212" d="M860.69 347.931h-25.6552v25.6552H860.69z" data-index="8"></path><path fill="#121212" d="M860.69 373.586h-25.6552v25.6552H860.69z" data-index="9"></path><path fill="#121212" d="M860.69 399.241h-25.6552v25.6552H860.69z" data-index="10"></path><path fill="#121212" d="M860.69 424.896h-25.6552v25.6552H860.69zM835.035 450.552h-25.6552v25.6552h25.6552z" data-index="11"></path><path fill="#121212" d="M835.035 476.207h-25.6552v25.6552h25.6552z" data-index="12"></path><path fill="#121212" d="M860.69 501.862h-25.6552v25.6552H860.69z" data-index="13"></path><path fill="#121212" d="M860.69 527.517h-25.6552v25.6552H860.69z" data-index="14"></path><path fill="#121212" d="M860.69 553.172h-25.6552v25.6552H860.69z" data-index="15"></path><path fill="#121212" d="M860.69 578.827h-25.6552v25.6552H860.69zM860.69 630.138h-25.6552v25.6552H860.69z" data-index="16"></path><path fill="#121212" d="M860.69 655.793h-25.6552v25.6552H860.69zM835.035 578.827h-25.6552v25.6552h25.6552z" data-index="17"></path><path fill="#121212" d="M835.035 604.482h-25.6552v25.6552h25.6552zM835.035 681.448h-25.6552v25.6552h25.6552zM809.379 681.448h-25.6552v25.6552h25.6552z" data-index="18"></path><path fill="#121212" d="M809.379 707.103h-25.6552v25.6552h25.6552z" data-index="19"></path><path fill="#121212" d="M809.379 732.758h-25.6552v25.6552h25.6552zM809.379 758.414h-25.6552v25.6552h25.6552z" data-index="20"></path><path fill="#121212" d="M783.724 758.414h-25.6552v25.6552h25.6552z" data-index="21"></path><path fill="#121212" d="M758.069 758.414h-25.6552v25.6552h25.6552z" data-index="22"></path><path fill="#121212" d="M758.069 784.069h-25.6552v25.6552h25.6552z" data-index="23"></path><path fill="#121212" d="M732.414 809.724h-25.6552v25.6552h25.6552z" data-index="24"></path><path fill="#121212" d="M706.759 809.724h-25.6552v25.6552h25.6552z" data-index="25"></path><path fill="#121212" d="M681.104 784.069h-25.6552v25.6552h25.6552z" data-index="26"></path><path fill="#121212" d="M681.104 809.724h-25.6552v25.6552h25.6552z" data-index="27"></path><path fill="#121212" d="M681.104 835.379h-25.6552v25.6552h25.6552zM655.448 861.034h-25.6552v25.6552h25.6552z" data-index="28"></path><path fill="#121212" d="M629.793 861.034h-25.6552v25.6552h25.6552z" data-index="29"></path><path fill="#121212" d="M629.793 835.379h-25.6552v25.6552h25.6552z" data-index="30"></path><path fill="#121212" d="M604.138 835.379h-25.6552v25.6552h25.6552z" data-index="31"></path><path fill="#121212" d="M578.483 861.034h-25.6552v25.6552h25.6552z" data-index="32"></path><path fill="#121212" d="M552.828 861.034h-25.6552v25.6552h25.6552zM527.172 835.379h-25.6552v25.6552h25.6552z" data-index="33"></path><path fill="#121212" d="M527.172 809.724h-25.6552v25.6552h25.6552z" data-index="34"></path><path fill="#121212" d="M501.517 835.379h-25.6552v25.6552h25.6552z" data-index="35"></path><path fill="#121212" d="M501.517 861.034h-25.6552v25.6552h25.6552z" data-index="36"></path><path fill="#121212" d="M475.862 861.034h-25.6552v25.6552h25.6552z" data-index="37"></path><path fill="#121212" d="M450.207 861.034h-25.6552v25.6552h25.6552z" data-index="38"></path><path fill="#121212" d="M450.207 835.379h-25.6552v25.6552h25.6552z" data-index="39"></path><path fill="#121212" d="M424.552 809.724h-25.6552v25.6552h25.6552z" data-index="40"></path><path fill="#121212" d="M398.897 809.724h-25.6552v25.6552h25.6552zM373.241 809.724h-25.6552v25.6552h25.6552z" data-index="41"></path><path fill="#121212" d="M373.241 784.069h-25.6552v25.6552h25.6552z" data-index="42"></path><path fill="#121212" d="M347.586 758.414h-25.6552v25.6552h25.6552zM347.586 732.758h-25.6552v25.6552h25.6552z" data-index="43"></path><path fill="#121212" d="M321.931 732.758h-25.6552v25.6552h25.6552zM296.276 758.414h-25.6552v25.6552h25.6552zM270.621 732.758h-25.6552v25.6552h25.6552z" data-index="44"></path><path fill="#121212" d="M270.621 707.103h-25.6552v25.6552h25.6552z" data-index="45"></path><path fill="#121212" d="M270.621 681.448h-25.6552v25.6552h25.6552z" data-index="46"></path><path fill="#121212" d="M244.966 681.448h-25.6552v25.6552h25.6552zM219.31 681.448h-25.6552v25.6552H219.31z" data-index="47"></path><path fill="#121212" d="M193.655 655.793h-25.6552v25.6552h25.6552z" data-index="48"></path><path fill="#121212" d="M193.655 630.138h-25.6552v25.6552h25.6552zM219.31 604.482h-25.6552v25.6552H219.31z" data-index="49"></path><path fill="#121212" d="M219.31 578.827h-25.6552v25.6552H219.31z" data-index="50"></path><path fill="#121212" d="M193.655 553.172h-25.6552v25.6552h25.6552z" data-index="51"></path><path fill="#121212" d="M193.655 527.517h-25.6552v25.6552h25.6552z" data-index="52"></path><path fill="#121212" d="M193.655 501.862h-25.6552v25.6552h25.6552zM244.966 578.827h-25.6552v25.6552h25.6552z" data-index="53"></path><path fill="#121212" d="M270.621 578.827h-25.6552v25.6552h25.6552z" data-index="54"></path><path fill="#121212" d="M296.276 578.827h-25.6552v25.6552h25.6552z" data-index="55"></path><path fill="#121212" d="M321.931 578.827h-25.6552v25.6552h25.6552zM424.552 784.069h-25.6552v25.6552h25.6552zM604.138 809.724h-25.6552v25.6552h25.6552zM681.104 194h-25.6552v25.6552h25.6552zM655.448 194h-25.6552v25.6552h25.6552zM604.138 194h-25.6552v25.6552h25.6552z" data-index="56"></path><path fill="#121212" d="M578.483 194h-25.6552v25.6552h25.6552zM527.172 194h-25.6552v25.6552h25.6552z" data-index="57"></path><path fill="#121212" d="M501.517 194h-25.6552v25.6552h25.6552zM450.207 194h-25.6552v25.6552h25.6552z" data-index="58"></path><path fill="#121212" d="M424.552 194h-25.6552v25.6552h25.6552zM424.552 245.31h-25.6552v25.6552h25.6552z" data-index="59" style="opacity: 1;"></path><path fill="#121212" d="M398.897 194h-25.6552v25.6552h25.6552zM398.897 245.31h-25.6552v25.6552h25.6552zM373.241 245.31h-25.6552v25.6552h25.6552z" data-index="60"></path><path fill="#121212" d="M347.586 245.31h-25.6552v25.6552h25.6552z" data-index="61"></path><path fill="#121212" d="M321.931 245.31h-25.6552v25.6552h25.6552z" data-index="62"></path><path fill="#121212" d="M321.931 270.965h-25.6552v25.6552h25.6552zM270.621 270.965h-25.6552v25.6552h25.6552z" data-index="63"></path><path fill="#121212" d="M296.276 296.62h-25.6552v25.6552h25.6552zM296.276 322.276h-25.6552v25.6552h25.6552z" data-index="64"></path><path fill="#121212" d="M296.276 347.931h-25.6552v25.6552h25.6552z" data-index="65"></path><path fill="#121212" d="M296.276 373.586h-25.6552v25.6552h25.6552z" data-index="66"></path><path fill="#121212" d="M296.276 399.241h-25.6552v25.6552h25.6552z" data-index="67"></path><path fill="#121212" d="M321.931 424.896h-25.6552v25.6552h25.6552zM347.586 450.552h-25.6552v25.6552h25.6552zM244.966 296.62h-25.6552v25.6552h25.6552zM219.31 322.276h-25.6552v25.6552H219.31z" data-index="68"></path><path fill="#121212" d="M219.31 347.931h-25.6552v25.6552H219.31z" data-index="69"></path><path fill="#121212" d="M219.31 373.586h-25.6552v25.6552H219.31z" data-index="70"></path><path fill="#121212" d="M219.31 399.241h-25.6552v25.6552H219.31z" data-index="71"></path><path fill="#121212" d="M193.655 424.896h-25.6552v25.6552h25.6552zM193.655 450.552h-25.6552v25.6552h25.6552z" data-index="72"></path><path fill="#121212" d="M219.31 476.207h-25.6552v25.6552H219.31zM244.966 476.207h-25.6552v25.6552h25.6552zM244.966 373.586h-25.6552v25.6552h25.6552zM296.276 245.31h-25.6552v25.6552h25.6552z" data-index="73"></path><path fill="#FFA978" d="M706.759 219.655h-25.6552v25.6552h25.6552z" data-index="74"></path><path fill="#FFA978" d="M681.104 219.655h-25.6552v25.6552h25.6552zM655.448 219.655h-25.6552v25.6552h25.6552z" data-index="75"></path><path fill="#FFA978" d="M655.448 245.31h-25.6552v25.6552h25.6552z" data-index="76"></path><path fill="#E0824D" d="M655.448 270.965h-25.6552v25.6552h25.6552zM655.448 296.621h-25.6552v25.6552h25.6552z" data-index="77"></path><path fill="#E0824D" d="M629.793 296.621h-25.6552v25.6552h25.6552z" data-index="78"></path><path fill="#E0824D" d="M629.793 322.276h-25.6552v25.6552h25.6552z" data-index="79"></path><path fill="#E0824D" d="M629.793 347.931h-25.6552v25.6552h25.6552z" data-index="80" style="opacity: 1;"></path><path fill="#E0824D" d="M604.138 347.931h-25.6552v25.6552h25.6552z" data-index="81"></path><path fill="#E0824D" d="M578.483 347.931h-25.6552v25.6552h25.6552z" data-index="82"></path><path fill="#E0824D" d="M552.828 347.931h-25.6552v25.6552h25.6552zM527.172 347.931h-25.6552v25.6552h25.6552z" data-index="83"></path><path fill="#E0824D" d="M527.172 322.276h-25.6552v25.6552h25.6552z" data-index="84"></path><path fill="#E0824D" d="M527.172 296.621h-25.6552v25.6552h25.6552z" data-index="85"></path><path fill="#E0824D" d="M501.517 296.621h-25.6552v25.6552h25.6552zM501.517 270.965h-25.6552v25.6552h25.6552z" data-index="86"></path><path fill="#E0824D" d="M475.862 270.965h-25.6552v25.6552h25.6552z" data-index="87"></path><path fill="#E0824D" d="M450.207 270.965h-25.6552v25.6552h25.6552zM681.104 270.965h-25.6552v25.6552h25.6552z" data-index="88"></path><path fill="#FFA978" d="M629.793 245.31h-25.6552v25.6552h25.6552z" data-index="89"></path><path fill="#FFA978" d="M629.793 270.965h-25.6552v25.6552h25.6552zM655.448 322.276h-25.6552v25.6552h25.6552zM681.104 296.621h-25.6552v25.6552h25.6552z" data-index="90"></path><path fill="#FFA978" d="M655.448 347.931h-25.6552v25.6552h25.6552zM732.414 373.586h-25.6552v25.6552h25.6552zM475.862 373.586h-25.6552v25.6552h25.6552z" data-index="91"></path><path fill="#FFA978" d="M732.414 399.241h-25.6552v25.6552h25.6552zM681.104 476.207h-25.6552v25.6552h25.6552z" data-index="92"></path><path fill="#121212" d="M681.104 501.862h-25.6552v25.6552h25.6552z" data-index="93"></path><path fill="#121212" d="M706.759 501.862h-25.6552v25.6552h25.6552z" data-index="94"></path><path fill="#121212" d="M732.414 501.862h-25.6552v25.6552h25.6552z" data-index="95"></path><path fill="#FFA978" d="M732.414 527.517h-25.6552v25.6552h25.6552z" data-index="96"></path><path fill="#121212" d="M706.759 527.517h-25.6552v25.6552h25.6552z" data-index="97"></path><path fill="#C4FFC2" d="M681.104 527.517h-25.6552v25.6552h25.6552z" data-index="98"></path><path fill="#FFA978" d="M681.104 553.172h-25.6552v25.6552h25.6552z" data-index="99"></path><path fill="#121212" d="M655.448 604.483h-25.6552v25.6552h25.6552z" data-index="100"></path><path fill="#121212" d="M655.448 630.138h-25.6552v25.6552h25.6552z" data-index="101"></path><path fill="#121212" d="M629.793 604.483h-25.6552v25.6552h25.6552z" data-index="102"></path><path fill="#121212" d="M629.793 630.138h-25.6552v25.6552h25.6552z" data-index="103"></path><path fill="#121212" d="M629.793 655.793h-25.6552v25.6552h25.6552z" data-index="104"></path><path fill="#121212" d="M629.793 681.448h-25.6552v25.6552h25.6552z" data-index="105"></path><path fill="#121212" d="M629.793 707.103h-25.6552v25.6552h25.6552zM629.793 732.759h-25.6552v25.6552h25.6552z" data-index="106"></path><path fill="#121212" d="M604.138 732.759h-25.6552v25.6552h25.6552z" data-index="107"></path><path fill="#121212" d="M578.483 732.759h-25.6552v25.6552h25.6552z" data-index="108"></path><path fill="#121212" d="M552.828 732.759h-25.6552v25.6552h25.6552zM527.172 732.759h-25.6552v25.6552h25.6552zM501.517 707.103h-25.6552v25.6552h25.6552z" data-index="109"></path><path fill="#E0824D" d="M475.862 732.759h-25.6552v25.6552h25.6552z" data-index="110"></path><path fill="#E0824D" d="M450.207 732.759h-25.6552v25.6552h25.6552zM424.552 707.103h-25.6552v25.6552h25.6552z" data-index="111"></path><path fill="#E0824D" d="M398.897 681.448h-25.6552v25.6552h25.6552z" data-index="112"></path><path fill="#121212" d="M501.517 681.448h-25.6552v25.6552h25.6552z" data-index="113"></path><path fill="#121212" d="M475.862 681.448h-25.6552v25.6552h25.6552zM655.448 732.759h-25.6552v25.6552h25.6552zM681.104 732.759h-25.6552v25.6552h25.6552z" data-index="114"></path><path fill="#121212" d="M706.759 732.759h-25.6552v25.6552h25.6552zM732.414 707.103h-25.6552v25.6552h25.6552z" data-index="115"></path><path fill="#121212" d="M732.414 681.448h-25.6552v25.6552h25.6552zM604.138 604.483h-25.6552v25.6552h25.6552z" data-index="116"></path><path fill="#121212" d="M604.138 630.138h-25.6552v25.6552h25.6552z" data-index="117"></path><path fill="#121212" d="M604.138 655.793h-25.6552v25.6552h25.6552zM578.483 604.483h-25.6552v25.6552h25.6552z" data-index="118"></path><path fill="#121212" d="M578.483 630.138h-25.6552v25.6552h25.6552z" data-index="119"></path><path fill="#FFA978" d="M527.172 553.172h-25.6552v25.6552h25.6552z" data-index="120"></path><path fill="#C4FFC2" d="M527.172 527.517h-25.6552v25.6552h25.6552z" data-index="121"></path><path fill="#121212" d="M527.172 501.862h-25.6552v25.6552h25.6552z" data-index="122"></path><path fill="#121212" d="M501.517 501.862h-25.6552v25.6552h25.6552z" data-index="123"></path><path fill="#121212" d="M475.862 501.862h-25.6552v25.6552h25.6552z" data-index="124"></path><path fill="#FFA978" d="M475.862 527.517h-25.6552v25.6552h25.6552z" data-index="125"></path><path fill="#121212" d="M501.517 527.517h-25.6552v25.6552h25.6552z" data-index="126"></path><path fill="#FFA978" d="M501.517 553.172h-25.6552v25.6552h25.6552zM706.759 553.172h-25.6552v25.6552h25.6552zM501.517 476.207h-25.6552v25.6552h25.6552zM450.207 501.862h-25.6552v25.6552h25.6552zM398.897 450.552h-25.6552v25.6552h25.6552zM373.241 450.552h-25.6552v25.6552h25.6552zM296.276 270.965h-25.6552v25.6552h25.6552zM270.621 296.621h-25.6552v25.6552h25.6552z" data-index="127"></path><path fill="#FFA978" d="M270.621 322.276h-25.6552v25.6552h25.6552z" data-index="128"></path><path fill="#FFA978" d="M244.966 322.276h-25.6552v25.6552h25.6552z" data-index="129"></path><path fill="#FFA978" d="M244.966 347.931h-25.6552v25.6552h25.6552z" data-index="130"></path><path fill="#FFA978" d="M270.621 347.931h-25.6552v25.6552h25.6552z" data-index="131"></path><path fill="#FFA978" d="M270.621 373.586h-25.6552v25.6552h25.6552z" data-index="132"></path><path fill="#FFA978" d="M270.621 399.241h-25.6552v25.6552h25.6552z" data-index="133"></path><path fill="#FFA978" d="M244.966 399.241h-25.6552v25.6552h25.6552z" data-index="134"></path><path fill="#FFA978" d="M244.966 424.896h-25.6552v25.6552h25.6552z" data-index="135"></path><path fill="#FFA978" d="M270.621 424.896h-25.6552v25.6552h25.6552z" data-index="136"></path><path fill="#FFA978" d="M296.276 424.896h-25.6552v25.6552h25.6552zM219.31 424.896h-25.6552v25.6552H219.31zM219.31 450.552h-25.6552v25.6552H219.31zM244.966 450.552h-25.6552v25.6552h25.6552z" data-index="137"></path><path fill="#FFA978" d="M270.621 450.552h-25.6552v25.6552h25.6552z" data-index="138"></path><path fill="#E0824D" d="M270.621 476.207h-25.6552v25.6552h25.6552z" data-index="139"></path><path fill="#FFA978" d="M296.276 450.552h-25.6552v25.6552h25.6552z" data-index="140"></path><path fill="#E0824D" d="M296.276 476.207h-25.6552v25.6552h25.6552z" data-index="141"></path><path fill="#FFA978" d="M321.931 450.552h-25.6552v25.6552h25.6552z" data-index="142"></path><path fill="#FFA978" d="M347.586 476.207h-25.6552v25.6552h25.6552z" data-index="143"></path><path fill="#FFA978" d="M347.586 501.862h-25.6552v25.6552h25.6552z" data-index="144"></path><path fill="#FFA978" d="M321.931 501.862h-25.6552v25.6552h25.6552z" data-index="145"></path><path fill="#FFA978" d="M321.931 527.517h-25.6552v25.6552h25.6552zM347.586 578.827h-25.6552v25.6552h25.6552zM347.586 604.483h-25.6552v25.6552h25.6552z" data-index="146"></path><path fill="#FFA978" d="M347.586 630.138h-25.6552v25.6552h25.6552z" data-index="147"></path><path fill="#FFA978" d="M373.241 630.138h-25.6552v25.6552h25.6552zM398.897 630.138h-25.6552v25.6552h25.6552z" data-index="148"></path><path fill="#FFA978" d="M398.897 655.793h-25.6552v25.6552h25.6552zM373.241 681.448h-25.6552v25.6552h25.6552z" data-index="149"></path><path fill="#FFA978" d="M373.241 707.103h-25.6552v25.6552h25.6552zM398.897 707.103h-25.6552v25.6552h25.6552zM398.897 732.759h-25.6552v25.6552h25.6552z" data-index="150"></path><path fill="#FFA978" d="M424.552 732.759h-25.6552v25.6552h25.6552zM450.207 707.103h-25.6552v25.6552h25.6552z" data-index="151"></path><path fill="#FFA978" d="M450.207 681.448h-25.6552v25.6552h25.6552z" data-index="152"></path><path fill="#FFA978" d="M424.552 681.448h-25.6552v25.6552h25.6552zM475.862 707.103h-25.6552v25.6552h25.6552zM475.862 758.414h-25.6552v25.6552h25.6552z" data-index="153"></path><path fill="#FFA978" d="M475.862 784.069h-25.6552v25.6552h25.6552z" data-index="154"></path><path fill="#FFA978" d="M501.517 758.414h-25.6552v25.6552h25.6552z" data-index="155"></path><path fill="#FFA978" d="M501.517 732.759h-25.6552v25.6552h25.6552z" data-index="156"></path><path fill="#FFA978" d="M527.172 758.414h-25.6552v25.6552h25.6552zM552.828 758.414h-25.6552v25.6552h25.6552z" data-index="157"></path><path fill="#FFA978" d="M552.828 784.069h-25.6552v25.6552h25.6552z" data-index="158"></path><path fill="#FFA978" d="M578.483 758.414h-25.6552v25.6552h25.6552z" data-index="159"></path><path fill="#FFA978" d="M578.483 784.069h-25.6552v25.6552h25.6552z" data-index="160"></path><path fill="#FFA978" d="M604.138 758.414h-25.6552v25.6552h25.6552zM347.586 681.448h-25.6552v25.6552h25.6552z" data-index="161"></path><path fill="#FFA978" d="M321.931 681.448h-25.6552v25.6552h25.6552zM373.241 604.483h-25.6552v25.6552h25.6552zM398.897 604.483h-25.6552v25.6552h25.6552zM373.241 578.827h-25.6552v25.6552h25.6552zM398.897 578.827h-25.6552v25.6552h25.6552z" data-index="162"></path><path fill="#FFA978" d="M373.241 553.172h-25.6552v25.6552h25.6552zM296.276 604.483h-25.6552v25.6552h25.6552z" data-index="163"></path><path fill="#FFA978" d="M270.621 604.483h-25.6552v25.6552h25.6552z" data-index="164"></path><path fill="#FFA978" d="M244.966 604.483h-25.6552v25.6552h25.6552z" data-index="165" style="opacity: 1;"></path><path fill="#FFA978" d="M244.966 630.138h-25.6552v25.6552h25.6552z" data-index="166"></path><path fill="#FFA978" d="M270.621 630.138h-25.6552v25.6552h25.6552z" data-index="167"></path><path fill="#FFA978" d="M296.276 630.138h-25.6552v25.6552h25.6552zM219.31 630.138h-25.6552v25.6552H219.31zM296.276 527.517h-25.6552v25.6552h25.6552z" data-index="168"></path><path fill="#FFA978" d="M296.276 501.862h-25.6552v25.6552h25.6552z" data-index="169"></path><path fill="#FFA978" d="M270.621 501.862h-25.6552v25.6552h25.6552z" data-index="170"></path><path fill="#FFA978" d="M270.621 527.517h-25.6552v25.6552h25.6552z" data-index="171"></path><path fill="#FFA978" d="M244.966 527.517h-25.6552v25.6552h25.6552z" data-index="172"></path><path fill="#FFA978" d="M244.966 501.862h-25.6552v25.6552h25.6552z" data-index="173"></path><path fill="#E0824D" d="M321.931 476.207h-25.6552v25.6552h25.6552zM373.241 476.207h-25.6552v25.6552h25.6552z" data-index="174"></path><path fill="#E0824D" d="M373.241 501.862h-25.6552v25.6552h25.6552z" data-index="175"></path><path fill="#E0824D" d="M373.241 527.517h-25.6552v25.6552h25.6552z" data-index="176"></path><path fill="#E0824D" d="M347.586 527.517h-25.6552v25.6552h25.6552z" data-index="177"></path><path fill="#E0824D" d="M347.586 553.172h-25.6552v25.6552h25.6552zM321.931 604.483h-25.6552v25.6552h25.6552z" data-index="178"></path><path fill="#E0824D" d="M321.931 630.138h-25.6552v25.6552h25.6552z" data-index="179"></path><path fill="#E0824D" d="M321.931 655.793h-25.6552v25.6552h25.6552z" data-index="180"></path><path fill="#E0824D" d="M347.586 655.793h-25.6552v25.6552h25.6552z" data-index="181"></path><path fill="#E0824D" d="M373.241 655.793h-25.6552v25.6552h25.6552zM296.276 655.793h-25.6552v25.6552h25.6552z" data-index="182"></path><path fill="#E0824D" d="M296.276 681.448h-25.6552v25.6552h25.6552z" data-index="183"></path><path fill="#E0824D" d="M296.276 707.103h-25.6552v25.6552h25.6552z" data-index="184"></path><path fill="#E0824D" d="M321.931 707.103h-25.6552v25.6552h25.6552z" data-index="185"></path><path fill="#E0824D" d="M347.586 707.103h-25.6552v25.6552h25.6552zM373.241 758.414h-25.6552v25.6552h25.6552z" data-index="186"></path><path fill="#E0824D" d="M373.241 732.759h-25.6552v25.6552h25.6552zM398.897 784.069h-25.6552v25.6552h25.6552z" data-index="187"></path><path fill="#E0824D" d="M398.897 758.414h-25.6552v25.6552h25.6552z" data-index="188"></path><path fill="#E0824D" d="M424.552 758.414h-25.6552v25.6552h25.6552z" data-index="189"></path><path fill="#E0824D" d="M450.207 758.414h-25.6552v25.6552h25.6552z" data-index="190"></path><path fill="#E0824D" d="M450.207 784.069h-25.6552v25.6552h25.6552z" data-index="191"></path><path fill="#E0824D" d="M450.207 809.724h-25.6552v25.6552h25.6552z" data-index="192"></path><path fill="#E0824D" d="M475.862 809.724h-25.6552v25.6552h25.6552z" data-index="193"></path><path fill="#E0824D" d="M501.517 809.724h-25.6552v25.6552h25.6552z" data-index="194"></path><path fill="#E0824D" d="M501.517 784.069h-25.6552v25.6552h25.6552z" data-index="195"></path><path fill="#E0824D" d="M527.172 784.069h-25.6552v25.6552h25.6552zM552.828 809.724h-25.6552v25.6552h25.6552z" data-index="196"></path><path fill="#E0824D" d="M552.828 835.379h-25.6552v25.6552h25.6552z" data-index="197"></path><path fill="#E0824D" d="M578.483 835.379h-25.6552v25.6552h25.6552z" data-index="198"></path><path fill="#E0824D" d="M578.483 809.724h-25.6552v25.6552h25.6552z" data-index="199"></path><path fill="#E0824D" d="M604.138 784.069h-25.6552v25.6552h25.6552z" data-index="200"></path><path fill="#E0824D" d="M629.793 809.724h-25.6552v25.6552h25.6552z" data-index="201"></path><path fill="#E0824D" d="M655.448 809.724h-25.6552v25.6552h25.6552zM681.104 758.414h-25.6552v25.6552h25.6552z" data-index="202"></path><path fill="#E0824D" d="M706.759 758.414h-25.6552v25.6552h25.6552z" data-index="203"></path><path fill="#E0824D" d="M732.414 758.414h-25.6552v25.6552h25.6552z" data-index="204"></path><path fill="#E0824D" d="M758.069 732.759h-25.6552v25.6552h25.6552z" data-index="205"></path><path fill="#E0824D" d="M783.724 732.759h-25.6552v25.6552h25.6552zM732.414 784.069h-25.6552v25.6552h25.6552z" data-index="206"></path><path fill="#E0824D" d="M706.759 784.069h-25.6552v25.6552h25.6552zM655.448 835.379h-25.6552v25.6552h25.6552zM475.862 835.379h-25.6552v25.6552h25.6552zM296.276 732.759h-25.6552v25.6552h25.6552zM270.621 655.793h-25.6552v25.6552h25.6552z" data-index="207"></path><path fill="#E0824D" d="M244.966 655.793h-25.6552v25.6552h25.6552zM219.31 655.793h-25.6552v25.6552H219.31zM321.931 553.172h-25.6552v25.6552h25.6552z" data-index="208" style="opacity: 1;"></path><path fill="#E0824D" d="M296.276 553.172h-25.6552v25.6552h25.6552z" data-index="209"></path><path fill="#E0824D" d="M270.621 553.172h-25.6552v25.6552h25.6552z" data-index="210"></path><path fill="#E0824D" d="M244.966 553.172h-25.6552v25.6552h25.6552zM219.31 553.172h-25.6552v25.6552H219.31z" data-index="211"></path><path fill="#E0824D" d="M219.31 527.517h-25.6552v25.6552H219.31z" data-index="212"></path><path fill="#E0824D" d="M219.31 501.862h-25.6552v25.6552H219.31z" data-index="213"></path><path fill="#FFA978" d="M450.207 527.517h-25.6552v25.6552h25.6552zM706.759 476.207h-25.6552v25.6552h25.6552zM527.172 476.207h-25.6552v25.6552h25.6552zM475.862 399.241h-25.6552v25.6552h25.6552z" data-index="214"></path><path fill="#FFA978" d="M450.207 399.241h-25.6552v25.6552h25.6552zM629.793 373.586h-25.6552v25.6552h25.6552z" data-index="215"></path><path fill="#FFA978" d="M604.138 373.586h-25.6552v25.6552h25.6552z" data-index="216"></path><path fill="#FFA978" d="M578.483 373.586h-25.6552v25.6552h25.6552z" data-index="217"></path><path fill="#FFA978" d="M578.483 399.241h-25.6552v25.6552h25.6552z" data-index="218"></path><path fill="#FFA978" d="M552.828 373.586h-25.6552v25.6552h25.6552zM604.138 245.31h-25.6552v25.6552h25.6552z" data-index="219"></path><path fill="#FFA978" d="M604.138 270.965h-25.6552v25.6552h25.6552zM604.138 296.621h-25.6552v25.6552h25.6552z" data-index="220"></path><path fill="#FFA978" d="M604.138 322.276h-25.6552v25.6552h25.6552zM604.138 219.655h-25.6552v25.6552h25.6552z" data-index="221"></path><path fill="#FFA978" d="M578.483 219.655h-25.6552v25.6552h25.6552z" data-index="222"></path><path fill="#FFA978" d="M578.483 245.31h-25.6552v25.6552h25.6552z" data-index="223"></path><path fill="#FFA978" d="M578.483 270.965h-25.6552v25.6552h25.6552zM578.483 296.621h-25.6552v25.6552h25.6552z" data-index="224"></path><path fill="#FFA978" d="M578.483 322.276h-25.6552v25.6552h25.6552zM552.828 245.31h-25.6552v25.6552h25.6552z" data-index="225"></path><path fill="#FFA978" d="M552.828 270.965h-25.6552v25.6552h25.6552zM552.828 296.621h-25.6552v25.6552h25.6552z" data-index="226"></path><path fill="#FFA978" d="M552.828 322.276h-25.6552v25.6552h25.6552zM527.172 245.31h-25.6552v25.6552h25.6552z" data-index="227"></path><path fill="#FFA978" d="M527.172 270.965h-25.6552v25.6552h25.6552zM527.172 219.655h-25.6552v25.6552h25.6552z" data-index="228"></path><path fill="#FFA978" d="M501.517 219.655h-25.6552v25.6552h25.6552z" data-index="229"></path><path fill="#FFA978" d="M501.517 245.31h-25.6552v25.6552h25.6552z" data-index="230"></path><path fill="#FFA978" d="M475.862 245.31h-25.6552v25.6552h25.6552z" data-index="231"></path><path fill="#FFA978" d="M450.207 245.31h-25.6552v25.6552h25.6552z" data-index="232"></path><path fill="#C4FFC2" d="M450.207 347.931h-25.6552v25.6552h25.6552zM783.724 347.931h-25.6552v25.6552h25.6552z" data-index="233"></path><path fill="#C4FFC2" d="M783.724 373.586h-25.6552v25.6552h25.6552z" data-index="234"></path><path fill="#C4FFC2" d="M783.724 399.241h-25.6552v25.6552h25.6552z" data-index="235"></path><path fill="#C4FFC2" d="M783.724 424.896h-25.6552v25.6552h25.6552zM758.069 347.931h-25.6552v25.6552h25.6552z" data-index="236"></path><path fill="#C4FFC2" d="M758.069 373.586h-25.6552v25.6552h25.6552z" data-index="237"></path><path fill="#C4FFC2" d="M758.069 399.241h-25.6552v25.6552h25.6552zM732.414 347.931h-25.6552v25.6552h25.6552zM450.207 373.586h-25.6552v25.6552h25.6552z" data-index="238"></path><path fill="#C4FFC2" d="M424.552 373.586h-25.6552v25.6552h25.6552z" data-index="239"></path><path fill="#C4FFC2" d="M424.552 399.241h-25.6552v25.6552h25.6552z" data-index="240"></path><path fill="#C4FFC2" d="M398.897 399.241h-25.6552v25.6552h25.6552z" data-index="241"></path><path fill="#C4FFC2" d="M398.897 424.896h-25.6552v25.6552h25.6552zM398.897 373.586h-25.6552v25.6552h25.6552zM373.241 373.586h-25.6552v25.6552h25.6552z" data-index="242"></path><path fill="#C4FFC2" d="M373.241 399.241h-25.6552v25.6552h25.6552z" data-index="243"></path><path fill="#C4FFC2" d="M373.241 424.896h-25.6552v25.6552h25.6552zM424.552 347.931h-25.6552v25.6552h25.6552z" data-index="244"></path><path fill="#C4FFC2" d="M398.897 347.931h-25.6552v25.6552h25.6552zM373.241 347.931h-25.6552v25.6552h25.6552z" data-index="245"></path><path fill="#FFE092" d="M450.207 322.276h-25.6552v25.6552h25.6552z" data-index="246"></path><path fill="#FFE092" d="M424.552 322.276h-25.6552v25.6552h25.6552z" data-index="247"></path><path fill="#FFE092" d="M398.897 322.276h-25.6552v25.6552h25.6552zM373.241 322.276h-25.6552v25.6552h25.6552z" data-index="248"></path><path fill="#FFE092" d="M347.586 322.276h-25.6552v25.6552h25.6552z" data-index="249"></path><path fill="#FFE092" d="M347.586 347.931h-25.6552v25.6552h25.6552z" data-index="250"></path><path fill="#FFE092" d="M347.586 373.586h-25.6552v25.6552h25.6552z" data-index="251"></path><path fill="#FFE092" d="M347.586 399.241h-25.6552v25.6552h25.6552z" data-index="252"></path><path fill="#FFE092" d="M347.586 424.896h-25.6552v25.6552h25.6552zM321.931 322.276h-25.6552v25.6552h25.6552z" data-index="253"></path><path fill="#FFE092" d="M321.931 347.931h-25.6552v25.6552h25.6552z" data-index="254"></path><path fill="#FFE092" d="M321.931 373.586h-25.6552v25.6552h25.6552z" data-index="255"></path><path fill="#FFE092" d="M321.931 399.241h-25.6552v25.6552h25.6552zM347.586 296.621h-25.6552v25.6552h25.6552z" data-index="256" style="opacity: 1;"></path><path fill="#FFE092" d="M321.931 296.621h-25.6552v25.6552h25.6552zM373.241 296.621h-25.6552v25.6552h25.6552zM398.897 296.621h-25.6552v25.6552h25.6552zM475.862 322.276h-25.6552v25.6552h25.6552z" data-index="257" style="opacity: 1;"></path><path fill="#FFE092" d="M501.517 322.276h-25.6552v25.6552h25.6552zM835.035 322.276h-25.6552v25.6552h25.6552z" data-index="258"></path><path fill="#FFE092" d="M835.035 296.621h-25.6552v25.6552h25.6552zM835.035 347.931h-25.6552v25.6552h25.6552z" data-index="259"></path><path fill="#FFE092" d="M835.035 373.586h-25.6552v25.6552h25.6552z" data-index="260"></path><path fill="#FFE092" d="M835.035 399.241h-25.6552v25.6552h25.6552z" data-index="261"></path><path fill="#FFE092" d="M835.035 424.896h-25.6552v25.6552h25.6552zM809.379 322.276h-25.6552v25.6552h25.6552z" data-index="262"></path><path fill="#FFE092" d="M783.724 322.276h-25.6552v25.6552h25.6552z" data-index="263"></path><path fill="#FFE092" d="M758.069 322.276h-25.6552v25.6552h25.6552z" data-index="264"></path><path fill="#FFE092" d="M732.414 322.276h-25.6552v25.6552h25.6552z" data-index="265"></path><path fill="#FFE092" d="M706.759 322.276h-25.6552v25.6552h25.6552z" data-index="266" style="opacity: 1;"></path><path fill="#FFE092" d="M706.759 347.931h-25.6552v25.6552h25.6552z" data-index="267"></path><path fill="#FFE092" d="M706.759 373.586h-25.6552v25.6552h25.6552z" data-index="268"></path><path fill="#FFE092" d="M706.759 399.241h-25.6552v25.6552h25.6552zM758.069 424.896h-25.6552v25.6552h25.6552zM758.069 450.552h-25.6552v25.6552h25.6552z" data-index="269"></path><path fill="#FFE092" d="M783.724 450.552h-25.6552v25.6552h25.6552z" data-index="270"></path><path fill="#FFE092" d="M783.724 476.207h-25.6552v25.6552h25.6552z" data-index="271"></path><path fill="#FFE092" d="M783.724 501.862h-25.6552v25.6552h25.6552z" data-index="272"></path><path fill="#FFE092" d="M783.724 527.517h-25.6552v25.6552h25.6552z" data-index="273"></path><path fill="#FFE092" d="M783.724 553.172h-25.6552v25.6552h25.6552z" data-index="274"></path><path fill="#FFE092" d="M783.724 578.827h-25.6552v25.6552h25.6552zM783.724 604.483h-25.6552v25.6552h25.6552z" data-index="275"></path><path fill="#FFE092" d="M809.379 630.138h-25.6552v25.6552h25.6552zM732.414 553.172h-25.6552v25.6552h25.6552z" data-index="276"></path><path fill="#FFE092" d="M732.414 578.827h-25.6552v25.6552h25.6552zM732.414 604.483h-25.6552v25.6552h25.6552z" data-index="277"></path><path fill="#FFE092" d="M706.759 604.483h-25.6552v25.6552h25.6552zM758.069 630.138h-25.6552v25.6552h25.6552z" data-index="278"></path><path fill="#FFE092" d="M758.069 655.793h-25.6552v25.6552h25.6552z" data-index="279"></path><path fill="#FFE092" d="M732.414 630.138h-25.6552v25.6552h25.6552z" data-index="280"></path><path fill="#FFE092" d="M706.759 630.138h-25.6552v25.6552h25.6552z" data-index="281"></path><path fill="#FFE092" d="M681.104 630.138h-25.6552v25.6552h25.6552zM732.414 655.793h-25.6552v25.6552h25.6552z" data-index="282"></path><path fill="#FFE092" d="M706.759 655.793h-25.6552v25.6552h25.6552z" data-index="283"></path><path fill="#FFE092" d="M706.759 681.448h-25.6552v25.6552h25.6552z" data-index="284"></path><path fill="#FFE092" d="M706.759 707.103h-25.6552v25.6552h25.6552zM681.104 655.793h-25.6552v25.6552h25.6552z" data-index="285"></path><path fill="#FFE092" d="M681.104 681.448h-25.6552v25.6552h25.6552z" data-index="286"></path><path fill="#FFE092" d="M681.104 707.103h-25.6552v25.6552h25.6552zM655.448 681.448h-25.6552v25.6552h25.6552z" data-index="287"></path><path fill="#FFE092" d="M655.448 707.103h-25.6552v25.6552h25.6552zM809.379 476.207h-25.6552v25.6552h25.6552z" data-index="288"></path><path fill="#FFE092" d="M809.379 501.862h-25.6552v25.6552h25.6552z" data-index="289"></path><path fill="#FFE092" d="M809.379 527.517h-25.6552v25.6552h25.6552z" data-index="290"></path><path fill="#FFE092" d="M809.379 553.172h-25.6552v25.6552h25.6552zM758.069 553.172h-25.6552v25.6552h25.6552z" data-index="291"></path><path fill="#FFE092" d="M758.069 578.827h-25.6552v25.6552h25.6552zM758.069 604.483h-25.6552v25.6552h25.6552z" data-index="292"></path><path fill="#FFE092" d="M783.724 630.138h-25.6552v25.6552h25.6552z" data-index="293"></path><path fill="#FFE092" d="M783.724 655.793h-25.6552v25.6552h25.6552zM758.069 476.207h-25.6552v25.6552h25.6552z" data-index="294"></path><path fill="#FFE092" d="M732.414 476.207h-25.6552v25.6552h25.6552zM629.793 424.896h-25.6552v25.6552h25.6552zM629.793 450.552h-25.6552v25.6552h25.6552z" data-index="295"></path><path fill="#FFE092" d="M629.793 476.207h-25.6552v25.6552h25.6552z" data-index="296"></path><path fill="#FFE092" d="M629.793 501.862h-25.6552v25.6552h25.6552z" data-index="297"></path><path fill="#FFE092" d="M629.793 527.517h-25.6552v25.6552h25.6552z" data-index="298"></path><path fill="#FFE092" d="M629.793 553.172h-25.6552v25.6552h25.6552z" data-index="299"></path><path fill="#FFE092" d="M629.793 578.827h-25.6552v25.6552h25.6552zM681.104 322.276h-25.6552v25.6552h25.6552z" data-index="300"></path><path fill="#FFE092" d="M681.104 347.931h-25.6552v25.6552h25.6552z" data-index="301"></path><path fill="#FFE092" d="M681.104 373.586h-25.6552v25.6552h25.6552z" data-index="302"></path><path fill="#FFE092" d="M681.104 399.241h-25.6552v25.6552h25.6552zM732.414 424.896h-25.6552v25.6552h25.6552zM732.414 450.552h-25.6552v25.6552h25.6552zM604.138 424.896h-25.6552v25.6552h25.6552zM604.138 450.552h-25.6552v25.6552h25.6552z" data-index="303"></path><path fill="#FFE092" d="M604.138 476.207h-25.6552v25.6552h25.6552z" data-index="304"></path><path fill="#FFE092" d="M604.138 501.862h-25.6552v25.6552h25.6552z" data-index="305"></path><path fill="#FFE092" d="M604.138 527.517h-25.6552v25.6552h25.6552z" data-index="306"></path><path fill="#FFE092" d="M604.138 553.172h-25.6552v25.6552h25.6552z" data-index="307"></path><path fill="#FFE092" d="M604.138 578.827h-25.6552v25.6552h25.6552zM501.517 424.896h-25.6552v25.6552h25.6552zM501.517 450.552h-25.6552v25.6552h25.6552zM629.793 399.241h-25.6552v25.6552h25.6552zM681.104 424.896h-25.6552v25.6552h25.6552zM681.104 450.552h-25.6552v25.6552h25.6552zM552.828 424.896h-25.6552v25.6552h25.6552zM552.828 450.552h-25.6552v25.6552h25.6552z" data-index="308"></path><path fill="#FFE092" d="M552.828 476.207h-25.6552v25.6552h25.6552z" data-index="309"></path><path fill="#FFE092" d="M552.828 501.862h-25.6552v25.6552h25.6552z" data-index="310"></path><path fill="#FFE092" d="M552.828 527.517h-25.6552v25.6552h25.6552z" data-index="311"></path><path fill="#FFE092" d="M552.828 553.172h-25.6552v25.6552h25.6552zM450.207 424.896h-25.6552v25.6552h25.6552zM450.207 450.552h-25.6552v25.6552h25.6552z" data-index="312"></path><path fill="#FFE092" d="M450.207 476.207h-25.6552v25.6552h25.6552zM552.828 399.241h-25.6552v25.6552h25.6552zM655.448 373.586h-25.6552v25.6552h25.6552z" data-index="313" style="opacity: 1;"></path><path fill="#FFE092" d="M655.448 399.241h-25.6552v25.6552h25.6552zM706.759 424.896h-25.6552v25.6552h25.6552zM706.759 450.552h-25.6552v25.6552h25.6552zM578.483 424.896h-25.6552v25.6552h25.6552zM578.483 450.552h-25.6552v25.6552h25.6552z" data-index="314"></path><path fill="#FFE092" d="M578.483 476.207h-25.6552v25.6552h25.6552z" data-index="315"></path><path fill="#FFE092" d="M578.483 501.862h-25.6552v25.6552h25.6552z" data-index="316"></path><path fill="#FFE092" d="M578.483 527.517h-25.6552v25.6552h25.6552z" data-index="317"></path><path fill="#FFE092" d="M578.483 553.172h-25.6552v25.6552h25.6552z" data-index="318"></path><path fill="#FFE092" d="M578.483 578.827h-25.6552v25.6552h25.6552zM475.862 424.896h-25.6552v25.6552h25.6552zM475.862 450.552h-25.6552v25.6552h25.6552z" data-index="319"></path><path fill="#FFE092" d="M475.862 476.207h-25.6552v25.6552h25.6552zM604.138 399.241h-25.6552v25.6552h25.6552zM655.448 424.896h-25.6552v25.6552h25.6552zM655.448 450.552h-25.6552v25.6552h25.6552z" data-index="320"></path><path fill="#FFE092" d="M655.448 476.207h-25.6552v25.6552h25.6552z" data-index="321"></path><path fill="#FFE092" d="M655.448 501.862h-25.6552v25.6552h25.6552z" data-index="322"></path><path fill="#FFE092" d="M655.448 527.517h-25.6552v25.6552h25.6552z" data-index="323"></path><path fill="#FFE092" d="M655.448 553.172h-25.6552v25.6552h25.6552z" data-index="324"></path><path fill="#FFE092" d="M655.448 578.827h-25.6552v25.6552h25.6552zM527.172 424.896h-25.6552v25.6552h25.6552zM527.172 450.552h-25.6552v25.6552h25.6552zM424.552 424.896h-25.6552v25.6552h25.6552zM424.552 450.552h-25.6552v25.6552h25.6552z" data-index="325"></path><path fill="#FFE092" d="M424.552 476.207h-25.6552v25.6552h25.6552z" data-index="326"></path><path fill="#FFE092" d="M424.552 501.862h-25.6552v25.6552h25.6552z" data-index="327"></path><path fill="#FFE092" d="M424.552 527.517h-25.6552v25.6552h25.6552z" data-index="328"></path><path fill="#FFE092" d="M424.552 553.172h-25.6552v25.6552h25.6552z" data-index="329"></path><path fill="#FFE092" d="M424.552 578.827h-25.6552v25.6552h25.6552zM424.552 604.483h-25.6552v25.6552h25.6552z" data-index="330"></path><path fill="#FFE092" d="M424.552 630.138h-25.6552v25.6552h25.6552z" data-index="331"></path><path fill="#FFE092" d="M424.552 655.793h-25.6552v25.6552h25.6552z" data-index="332"></path><path fill="#FFE092" d="M450.207 655.793h-25.6552v25.6552h25.6552z" data-index="333"></path><path fill="#FFE092" d="M450.207 630.138h-25.6552v25.6552h25.6552z" data-index="334"></path><path fill="#FFE092" d="M450.207 604.483h-25.6552v25.6552h25.6552zM450.207 578.827h-25.6552v25.6552h25.6552z" data-index="335"></path><path fill="#FFE092" d="M450.207 553.172h-25.6552v25.6552h25.6552zM475.862 655.793h-25.6552v25.6552h25.6552z" data-index="336"></path><path fill="#FFE092" d="M475.862 630.138h-25.6552v25.6552h25.6552z" data-index="337"></path><path fill="#FFE092" d="M475.862 604.483h-25.6552v25.6552h25.6552zM475.862 578.827h-25.6552v25.6552h25.6552z" data-index="338"></path><path fill="#FFA978" d="M475.862 553.172h-25.6552v25.6552h25.6552z" data-index="339"></path><path fill="#FFE092" d="M501.517 655.793h-25.6552v25.6552h25.6552z" data-index="340"></path><path fill="#FFE092" d="M501.517 630.138h-25.6552v25.6552h25.6552z" data-index="341"></path><path fill="#FFE092" d="M501.517 604.483h-25.6552v25.6552h25.6552zM501.517 578.827h-25.6552v25.6552h25.6552zM527.172 655.793h-25.6552v25.6552h25.6552z" data-index="342"></path><path fill="#FFE092" d="M527.172 630.138h-25.6552v25.6552h25.6552z" data-index="343"></path><path fill="#FFE092" d="M527.172 604.483h-25.6552v25.6552h25.6552zM527.172 681.448h-25.6552v25.6552h25.6552z" data-index="344"></path><path fill="#FFE092" d="M527.172 707.103h-25.6552v25.6552h25.6552zM552.828 655.793h-25.6552v25.6552h25.6552z" data-index="345"></path><path fill="#FFE092" d="M552.828 630.138h-25.6552v25.6552h25.6552zM552.828 681.448h-25.6552v25.6552h25.6552z" data-index="346"></path><path fill="#FFE092" d="M552.828 707.103h-25.6552v25.6552h25.6552zM578.483 655.793h-25.6552v25.6552h25.6552z" data-index="347"></path><path fill="#FFE092" d="M578.483 681.448h-25.6552v25.6552h25.6552z" data-index="348"></path><path fill="#FFE092" d="M604.138 681.448h-25.6552v25.6552h25.6552z" data-index="349"></path><path fill="#FFE092" d="M604.138 707.103h-25.6552v25.6552h25.6552z" data-index="350"></path><path fill="#FFE092" d="M578.483 707.103h-25.6552v25.6552h25.6552zM398.897 476.207h-25.6552v25.6552h25.6552z" data-index="351"></path><path fill="#FFE092" d="M398.897 501.862h-25.6552v25.6552h25.6552z" data-index="352"></path><path fill="#FFE092" d="M398.897 527.517h-25.6552v25.6552h25.6552z" data-index="353"></path><path fill="#FFE092" d="M398.897 553.172h-25.6552v25.6552h25.6552z" data-index="354"></path><path fill="#FFE092" d="M398.897 578.827h-25.6552v25.6552h25.6552zM527.172 399.241h-25.6552v25.6552h25.6552z" data-index="355"></path><path fill="#FFE092" d="M527.172 373.586h-25.6552v25.6552h25.6552z" data-index="356"></path><path fill="#FFE092" d="M501.517 373.586h-25.6552v25.6552h25.6552z" data-index="357"></path><path fill="#FFE092" d="M501.517 399.241h-25.6552v25.6552h25.6552zM809.379 296.621h-25.6552v25.6552h25.6552z" data-index="358"></path><path fill="#FFE092" d="M783.724 296.621h-25.6552v25.6552h25.6552z" data-index="359"></path><path fill="#FFE092" d="M758.069 296.621h-25.6552v25.6552h25.6552z" data-index="360" style="opacity: 1;"></path><path fill="#FFE092" d="M732.414 296.621h-25.6552v25.6552h25.6552z" data-index="361"></path><path fill="#FFE092" d="M706.759 296.621h-25.6552v25.6552h25.6552zM809.379 270.965h-25.6552v25.6552h25.6552z" data-index="362"></path><path fill="#FFE092" d="M783.724 270.965h-25.6552v25.6552h25.6552z" data-index="363" style="opacity: 1;"></path><path fill="#FFE092" d="M758.069 270.965h-25.6552v25.6552h25.6552z" data-index="364"></path><path fill="#FFE092" d="M732.414 270.965h-25.6552v25.6552h25.6552z" data-index="365"></path><path fill="#FFE092" d="M706.759 270.965h-25.6552v25.6552h25.6552zM809.379 347.931h-25.6552v25.6552h25.6552z" data-index="366"></path><path fill="#FFE092" d="M809.379 373.586h-25.6552v25.6552h25.6552z" data-index="367"></path><path fill="#FFE092" d="M809.379 399.241h-25.6552v25.6552h25.6552z" data-index="368"></path><path fill="#FFE092" d="M809.379 424.896h-25.6552v25.6552h25.6552zM501.517 347.931h-25.6552v25.6552h25.6552z" data-index="369"></path><path fill="#FFE092" d="M475.862 347.931h-25.6552v25.6552h25.6552zM450.207 296.621h-25.6552v25.6552h25.6552z" data-index="370"></path><path fill="#FFE092" d="M475.862 296.621h-25.6552v25.6552h25.6552zM424.552 296.621h-25.6552v25.6552h25.6552zM424.552 270.965h-25.6552v25.6552h25.6552z" data-index="371"></path><path fill="#FFE092" d="M398.897 270.965h-25.6552v25.6552h25.6552zM373.241 270.965h-25.6552v25.6552h25.6552z" data-index="372" style="opacity: 1;"></path><path fill="#FFE092" d="M347.586 270.965h-25.6552v25.6552h25.6552z" data-index="373"></path><path fill="#FFA978" d="M450.207 219.655h-25.6552v25.6552h25.6552z" data-index="374" style="opacity: 1;"></path><path fill="#FFA978" d="M424.552 219.655h-25.6552v25.6552h25.6552z" data-index="375"></path><path fill="#FFA978" d="M398.897 219.655h-25.6552v25.6552h25.6552zM681.104 245.31h-25.6552v25.6552h25.6552zM809.379 450.552h-25.6552v25.6552h25.6552zM835.035 501.862h-25.6552v25.6552h25.6552zM758.069 501.862h-25.6552v25.6552h25.6552z" data-index="376"></path><path fill="#FFA978" d="M758.069 527.517h-25.6552v25.6552h25.6552zM706.759 578.827h-25.6552v25.6552h25.6552z" data-index="377"></path><path fill="#FFA978" d="M681.104 578.827h-25.6552v25.6552h25.6552zM681.104 604.483h-25.6552v25.6552h25.6552zM655.448 655.793h-25.6552v25.6552h25.6552zM552.828 578.827h-25.6552v25.6552h25.6552zM552.828 604.483h-25.6552v25.6552h25.6552zM527.172 578.827h-25.6552v25.6552h25.6552zM835.035 527.517h-25.6552v25.6552h25.6552z" data-index="378"></path><path fill="#FFA978" d="M835.035 553.172h-25.6552v25.6552h25.6552zM809.379 578.827h-25.6552v25.6552h25.6552zM809.379 604.483h-25.6552v25.6552h25.6552zM835.035 630.138h-25.6552v25.6552h25.6552z" data-index="379"></path><path fill="#FFA978" d="M835.035 655.793h-25.6552v25.6552h25.6552zM809.379 655.793h-25.6552v25.6552h25.6552z" data-index="380"></path><path fill="#FFA978" d="M783.724 681.448h-25.6552v25.6552h25.6552z" data-index="381"></path><path fill="#FFA978" d="M758.069 681.448h-25.6552v25.6552h25.6552z" data-index="382"></path><path fill="#FFA978" d="M758.069 707.103h-25.6552v25.6552h25.6552zM732.414 732.759h-25.6552v25.6552h25.6552zM655.448 784.069h-25.6552v25.6552h25.6552z" data-index="383"></path><path fill="#FFA978" d="M629.793 784.069h-25.6552v25.6552h25.6552z" data-index="384"></path><path fill="#FFA978" d="M629.793 758.414h-25.6552v25.6552h25.6552z" data-index="385"></path><path fill="#FFA978" d="M655.448 758.414h-25.6552v25.6552h25.6552zM783.724 707.103h-25.6552v25.6552h25.6552z" data-index="386"></path><path fill="#121212" d="M321.931 450.552h-25.6552v25.6552h25.6552z" data-index="387"></path><path fill="#121212" d="M347.586 450.552h-25.6552v25.6552h25.6552z" data-index="388"></path><path fill="#121212" d="M373.241 450.552h-25.6552v25.6552h25.6552zM398.897 450.552h-25.6552v25.6552h25.6552z" data-index="389"></path><path fill="#121212" d="M424.552 450.552h-25.6552v25.6552h25.6552z" data-index="390"></path><path fill="#121212" d="M424.552 476.207h-25.6552v25.6552h25.6552z" data-index="391"></path><path fill="#121212" d="M450.207 450.552h-25.6552v25.6552h25.6552z" data-index="392"></path><path fill="#121212" d="M450.207 476.207h-25.6552v25.6552h25.6552z" data-index="393" style="opacity: 1;"></path><path fill="#121212" d="M450.207 501.862h-25.6552v25.6552h25.6552zM475.862 450.552h-25.6552v25.6552h25.6552z" data-index="394"></path><path fill="#121212" d="M475.862 476.207h-25.6552v25.6552h25.6552z" data-index="395"></path><path fill="#121212" d="M475.862 501.862h-25.6552v25.6552h25.6552z" data-index="396"></path><path fill="#121212" d="M475.862 527.517h-25.6552v25.6552h25.6552zM501.517 450.552h-25.6552v25.6552h25.6552z" data-index="397"></path><path fill="#121212" d="M501.517 476.207h-25.6552v25.6552h25.6552z" data-index="398"></path><path fill="#121212" d="M501.517 501.862h-25.6552v25.6552h25.6552z" data-index="399"></path><path fill="#121212" d="M501.517 527.517h-25.6552v25.6552h25.6552zM527.172 450.552h-25.6552v25.6552h25.6552z" data-index="400"></path><path fill="#121212" d="M527.172 476.207h-25.6552v25.6552h25.6552z" data-index="401"></path><path fill="#121212" d="M527.172 501.862h-25.6552v25.6552h25.6552z" data-index="402"></path><path fill="#121212" d="M527.172 527.517h-25.6552v25.6552h25.6552z" data-index="403"></path><path fill="#121212" d="M527.172 553.172h-25.6552v25.6552h25.6552z" data-index="404"></path><path fill="#121212" d="M501.517 553.172h-25.6552v25.6552h25.6552z" data-index="405"></path><path fill="#121212" d="M475.862 553.172h-25.6552v25.6552h25.6552z" data-index="406"></path><path fill="#121212" d="M450.207 553.172h-25.6552v25.6552h25.6552z" data-index="407"></path><path fill="#121212" d="M424.552 553.172h-25.6552v25.6552h25.6552z" data-index="408"></path><path fill="#121212" d="M398.897 553.172h-25.6552v25.6552h25.6552zM373.241 553.172h-25.6552v25.6552h25.6552zM552.828 450.552h-25.6552v25.6552h25.6552z" data-index="409"></path><path fill="#121212" d="M552.828 476.207h-25.6552v25.6552h25.6552z" data-index="410"></path><path fill="#121212" d="M552.828 501.862h-25.6552v25.6552h25.6552z" data-index="411"></path><path fill="#121212" d="M552.828 527.517h-25.6552v25.6552h25.6552zM578.483 450.552h-25.6552v25.6552h25.6552z" data-index="412"></path><path fill="#121212" d="M578.483 476.207h-25.6552v25.6552h25.6552z" data-index="413"></path><path fill="#121212" d="M578.483 501.862h-25.6552v25.6552h25.6552zM604.138 450.552h-25.6552v25.6552h25.6552z" data-index="414"></path><path fill="#121212" d="M629.793 450.552h-25.6552v25.6552h25.6552z" data-index="415"></path><path fill="#121212" d="M655.448 450.552h-25.6552v25.6552h25.6552z" data-index="416"></path><path fill="#121212" d="M655.448 476.207h-25.6552v25.6552h25.6552z" data-index="417"></path><path fill="#121212" d="M655.448 501.862h-25.6552v25.6552h25.6552z" data-index="418"></path><path fill="#121212" d="M681.103 527.517h-25.6552v25.6552h25.6552z" data-index="419"></path><path fill="#121212" d="M681.103 501.862h-25.6552v25.6552h25.6552zM706.759 527.517h-25.6552v25.6552h25.6552z" data-index="420"></path><path fill="#121212" d="M706.759 501.862h-25.6552v25.6552h25.6552z" data-index="421"></path><path fill="#121212" d="M732.414 527.517h-25.6552v25.6552h25.6552zM681.103 476.207h-25.6552v25.6552h25.6552z" data-index="422"></path><path fill="#121212" d="M681.103 450.552h-25.6552v25.6552h25.6552zM706.759 450.552h-25.6552v25.6552h25.6552z" data-index="423"></path><path fill="#121212" d="M732.414 450.552h-25.6552v25.6552h25.6552z" data-index="424"></path><path fill="#121212" d="M758.069 450.552h-25.6552v25.6552h25.6552z" data-index="425"></path><path fill="#121212" d="M783.724 450.552h-25.6552v25.6552h25.6552z" data-index="426"></path><path fill="#121212" d="M809.379 450.552h-25.6552v25.6552h25.6552z" data-index="427"></path><path fill="#121212" d="M835.034 450.552h-25.6552v25.6552h25.6552zM860.69 450.552h-25.6552v25.6552H860.69z" data-index="428"></path><path fill="#121212" d="M886.345 450.552h-25.6552v25.6552h25.6552z" data-index="429"></path><path fill="#121212" d="M912 450.552h-25.6552v25.6552H912z" data-index="430"></path><path fill="#121212" d="M912 476.207h-25.6552v25.6552H912z" data-index="431"></path><path fill="#121212" d="M886.345 476.207h-25.6552v25.6552h25.6552z" data-index="432"></path><path fill="#121212" d="M860.69 476.207h-25.6552v25.6552H860.69z" data-index="433"></path><path fill="#121212" d="M860.69 501.862h-25.6552v25.6552H860.69zM835.034 501.862h-25.6552v25.6552h25.6552z" data-index="434"></path><path fill="#121212" d="M809.379 501.862h-25.6552v25.6552h25.6552z" data-index="435"></path><path fill="#121212" d="M783.724 527.517h-25.6552v25.6552h25.6552z" data-index="436"></path><path fill="#121212" d="M758.069 501.862h-25.6552v25.6552h25.6552z" data-index="437"></path><path fill="#121212" d="M732.414 476.207h-25.6552v25.6552h25.6552z" data-index="438"></path><path fill="#F5F5F5" d="M706.759 476.207h-25.6552v25.6552h25.6552z" data-index="439"></path><path fill="#F5F5F5" d="M732.414 501.862h-25.6552v25.6552h25.6552z" data-index="440"></path><path fill="#F5F5F5" d="M758.069 527.517h-25.6552v25.6552h25.6552zM758.069 476.207h-25.6552v25.6552h25.6552z" data-index="441"></path><path fill="#F5F5F5" d="M783.724 501.862h-25.6552v25.6552h25.6552z" data-index="442"></path><path fill="#F5F5F5" d="M809.379 527.517h-25.6552v25.6552h25.6552z" data-index="443"></path><path fill="#121212" d="M835.034 527.517h-25.6552v25.6552h25.6552zM835.034 476.207h-25.6552v25.6552h25.6552z" data-index="444"></path><path fill="#121212" d="M809.379 476.207h-25.6552v25.6552h25.6552z" data-index="445"></path><path fill="#121212" d="M783.724 476.207h-25.6552v25.6552h25.6552zM886.345 501.862h-25.6552v25.6552h25.6552z" data-index="446"></path><path fill="#121212" d="M860.69 527.517h-25.6552v25.6552H860.69zM835.034 553.172h-25.6552v25.6552h25.6552z" data-index="447"></path><path fill="#121212" d="M809.379 553.172h-25.6552v25.6552h25.6552z" data-index="448"></path><path fill="#121212" d="M783.724 553.172h-25.6552v25.6552h25.6552z" data-index="449"></path><path fill="#121212" d="M758.069 553.172h-25.6552v25.6552h25.6552z" data-index="450"></path><path fill="#121212" d="M732.414 553.172h-25.6552v25.6552h25.6552z" data-index="451"></path><path fill="#121212" d="M706.759 553.172h-25.6552v25.6552h25.6552zM321.931 476.207h-25.6552v25.6552h25.6552z" data-index="452"></path><path fill="#121212" d="M321.931 501.862h-25.6552v25.6552h25.6552z" data-index="453"></path><path fill="#121212" d="M347.586 501.862h-25.6552v25.6552h25.6552z" data-index="454"></path><path fill="#121212" d="M347.586 527.517h-25.6552v25.6552h25.6552z" data-index="455" style="opacity: 1;"></path><path fill="#121212" d="M373.241 527.517h-25.6552v25.6552h25.6552zM424.552 527.517h-25.6552v25.6552h25.6552z" data-index="456"></path><path fill="#121212" d="M398.897 501.862h-25.6552v25.6552h25.6552zM373.241 476.207h-25.6552v25.6552h25.6552z" data-index="457"></path><path fill="#F5F5F5" d="M347.586 476.207h-25.6552v25.6552h25.6552zM398.897 476.207h-25.6552v25.6552h25.6552z" data-index="458"></path><path fill="#F5F5F5" d="M373.241 501.862h-25.6552v25.6552h25.6552zM424.552 501.862h-25.6552v25.6552h25.6552z" data-index="459"></path><path fill="#F5F5F5" d="M450.207 527.517h-25.6552v25.6552h25.6552zM398.897 527.517h-25.6552v25.6552h25.6552z" data-index="460"></path><path fill="#121212" d="M296.276 450.552h-25.6552v25.6552h25.6552z" data-index="461"></path><path fill="#121212" d="M296.276 476.207h-25.6552v25.6552h25.6552z" data-index="462"></path></svg>